<svg width="94" height="14" viewBox="0 0 94 14" fill="none" xmlns="http://www.w3.org/2000/svg">
<path d="M0.769492 7.35818L2.8473 8.92503L2.0582 11.4483C1.93068 11.8396 1.92906 12.263 2.05359 12.6554C2.17813 13.0478 2.42214 13.3881 2.74925 13.6256C3.07075 13.8707 3.46037 14.002 3.86003 14C4.25969 13.9979 4.64802 13.8626 4.96713 13.6141L6.99883 12.0702L9.03112 13.6123C9.35204 13.8561 9.73955 13.9884 10.1379 13.9904C10.5363 13.9924 10.9251 13.864 11.2483 13.6235C11.5715 13.383 11.8125 13.0429 11.9367 12.652C12.0609 12.2612 12.0619 11.8397 11.9395 11.4483L11.1504 8.92503L13.2282 7.35818C13.5487 7.11622 13.7869 6.77588 13.9089 6.38576C14.0309 5.99564 14.0303 5.57569 13.9074 5.18591C13.7844 4.79613 13.5452 4.45645 13.2241 4.21538C12.903 3.97431 12.5163 3.8442 12.1192 3.84361H9.56691L8.7924 1.35111C8.67061 0.958774 8.43128 0.616511 8.10892 0.373681C7.78657 0.13085 7.39786 0 6.99883 0C6.59981 0 6.21109 0.13085 5.88874 0.373681C5.56639 0.616511 5.32706 0.958774 5.20526 1.35111L4.43075 3.84361H1.88077C1.48373 3.8442 1.09703 3.97431 0.7759 4.21538C0.454767 4.45645 0.215628 4.79613 0.0926406 5.18591C-0.0303466 5.57569 -0.0308909 5.99564 0.0910853 6.38576C0.213062 6.77588 0.451319 7.11622 0.771826 7.35818H0.769492Z" fill="#FFE03D"/>
<path d="M20.7695 7.35818L22.8473 8.92503L22.0582 11.4483C21.9307 11.8396 21.9291 12.263 22.0536 12.6554C22.1781 13.0478 22.4221 13.3881 22.7492 13.6256C23.0708 13.8707 23.4604 14.002 23.86 14C24.2597 13.9979 24.648 13.8626 24.9671 13.6141L26.9988 12.0702L29.0311 13.6123C29.352 13.8561 29.7396 13.9884 30.1379 13.9904C30.5363 13.9924 30.9251 13.864 31.2483 13.6235C31.5715 13.383 31.8125 13.0429 31.9367 12.652C32.0609 12.2612 32.0619 11.8397 31.9395 11.4483L31.1504 8.92503L33.2282 7.35818C33.5487 7.11622 33.7869 6.77588 33.9089 6.38576C34.0309 5.99564 34.0303 5.57569 33.9074 5.18591C33.7844 4.79613 33.5452 4.45645 33.2241 4.21538C32.903 3.97431 32.5163 3.8442 32.1192 3.84361H29.5669L28.7924 1.35111C28.6706 0.958774 28.4313 0.616511 28.1089 0.373681C27.7866 0.13085 27.3979 0 26.9988 0C26.5998 0 26.2111 0.13085 25.8887 0.373681C25.5664 0.616511 25.3271 0.958774 25.2053 1.35111L24.4308 3.84361H21.8808C21.4837 3.8442 21.097 3.97431 20.7759 4.21538C20.4548 4.45645 20.2156 4.79613 20.0926 5.18591C19.9697 5.57569 19.9691 5.99564 20.0911 6.38576C20.2131 6.77588 20.4513 7.11622 20.7718 7.35818H20.7695Z" fill="#FFE03D"/>
<path d="M40.7695 7.35818L42.8473 8.92503L42.0582 11.4483C41.9307 11.8396 41.9291 12.263 42.0536 12.6554C42.1781 13.0478 42.4221 13.3881 42.7492 13.6256C43.0708 13.8707 43.4604 14.002 43.86 14C44.2597 13.9979 44.648 13.8626 44.9671 13.6141L46.9988 12.0702L49.0311 13.6123C49.352 13.8561 49.7396 13.9884 50.1379 13.9904C50.5363 13.9924 50.9251 13.864 51.2483 13.6235C51.5715 13.383 51.8125 13.0429 51.9367 12.652C52.0609 12.2612 52.0619 11.8397 51.9395 11.4483L51.1504 8.92503L53.2282 7.35818C53.5487 7.11622 53.7869 6.77588 53.9089 6.38576C54.0309 5.99564 54.0303 5.57569 53.9074 5.18591C53.7844 4.79613 53.5452 4.45645 53.2241 4.21538C52.903 3.97431 52.5163 3.8442 52.1192 3.84361H49.5669L48.7924 1.35111C48.6706 0.958774 48.4313 0.616511 48.1089 0.373681C47.7866 0.13085 47.3979 0 46.9988 0C46.5998 0 46.2111 0.13085 45.8887 0.373681C45.5664 0.616511 45.3271 0.958774 45.2053 1.35111L44.4308 3.84361H41.8808C41.4837 3.8442 41.097 3.97431 40.7759 4.21538C40.4548 4.45645 40.2156 4.79613 40.0926 5.18591C39.9697 5.57569 39.9691 5.99564 40.0911 6.38576C40.2131 6.77588 40.4513 7.11622 40.7718 7.35818H40.7695Z" fill="#FFE03D"/>
<path d="M60.7695 7.35818L62.8473 8.92503L62.0582 11.4483C61.9307 11.8396 61.9291 12.263 62.0536 12.6554C62.1781 13.0478 62.4221 13.3881 62.7492 13.6256C63.0708 13.8707 63.4604 14.002 63.86 14C64.2597 13.9979 64.648 13.8626 64.9671 13.6141L66.9988 12.0702L69.0311 13.6123C69.352 13.8561 69.7396 13.9884 70.1379 13.9904C70.5363 13.9924 70.9251 13.864 71.2483 13.6235C71.5715 13.383 71.8125 13.0429 71.9367 12.652C72.0609 12.2612 72.0619 11.8397 71.9395 11.4483L71.1504 8.92503L73.2282 7.35818C73.5487 7.11622 73.7869 6.77588 73.9089 6.38576C74.0309 5.99564 74.0303 5.57569 73.9074 5.18591C73.7844 4.79613 73.5452 4.45645 73.2241 4.21538C72.903 3.97431 72.5163 3.8442 72.1192 3.84361H69.5669L68.7924 1.35111C68.6706 0.958774 68.4313 0.616511 68.1089 0.373681C67.7866 0.13085 67.3979 0 66.9988 0C66.5998 0 66.2111 0.13085 65.8887 0.373681C65.5664 0.616511 65.3271 0.958774 65.2053 1.35111L64.4308 3.84361H61.8808C61.4837 3.8442 61.097 3.97431 60.7759 4.21538C60.4548 4.45645 60.2156 4.79613 60.0926 5.18591C59.9697 5.57569 59.9691 5.99564 60.0911 6.38576C60.2131 6.77588 60.4513 7.11622 60.7718 7.35818H60.7695Z" fill="#FFE03D"/>
<path d="M80.7695 7.35818L82.8473 8.92503L82.0582 11.4483C81.9307 11.8396 81.9291 12.263 82.0536 12.6554C82.1781 13.0478 82.4221 13.3881 82.7492 13.6256C83.0708 13.8707 83.4604 14.002 83.86 14C84.2597 13.9979 84.648 13.8626 84.9671 13.6141L86.9988 12.0702L89.0311 13.6123C89.352 13.8561 89.7396 13.9884 90.1379 13.9904C90.5363 13.9924 90.9251 13.864 91.2483 13.6235C91.5715 13.383 91.8125 13.0429 91.9367 12.652C92.0609 12.2612 92.0619 11.8397 91.9395 11.4483L91.1504 8.92503L93.2282 7.35818C93.5487 7.11622 93.7869 6.77588 93.9089 6.38576C94.0309 5.99564 94.0303 5.57569 93.9074 5.18591C93.7844 4.79613 93.5452 4.45645 93.2241 4.21538C92.903 3.97431 92.5163 3.8442 92.1192 3.84361H89.5669L88.7924 1.35111C88.6706 0.958774 88.4313 0.616511 88.1089 0.373681C87.7866 0.13085 87.3979 0 86.9988 0C86.5998 0 86.2111 0.13085 85.8887 0.373681C85.5664 0.616511 85.3271 0.958774 85.2053 1.35111L84.4308 3.84361H81.8808C81.4837 3.8442 81.097 3.97431 80.7759 4.21538C80.4548 4.45645 80.2156 4.79613 80.0926 5.18591C79.9697 5.57569 79.9691 5.99564 80.0911 6.38576C80.2131 6.77588 80.4513 7.11622 80.7718 7.35818H80.7695Z" fill="#FFE03D"/>
</svg>
