<svg width="186" height="28" viewBox="0 0 186 28" fill="none" xmlns="http://www.w3.org/2000/svg">
<g id="Group 9168">
<path id="Vector" fill-rule="evenodd" clip-rule="evenodd" d="M59.6722 2.6409C60.8573 2.58634 61.2351 2.57422 64.2539 2.57422C67.2727 2.57422 67.6506 2.58735 68.8346 2.6409C70.0187 2.69444 70.8269 2.88337 71.5341 3.15716C72.2747 3.43701 72.9465 3.87447 73.5022 4.44024C74.068 4.9949 74.5044 5.66574 74.7833 6.4073C75.0581 7.11451 75.246 7.92275 75.3005 9.1048C75.3551 10.2919 75.3672 10.6698 75.3672 13.6875C75.3672 16.7063 75.3541 17.0841 75.3005 18.2692C75.247 19.4513 75.0581 20.2595 74.7833 20.9667C74.5044 21.7084 74.0672 22.3803 73.5022 22.9358C72.9465 23.5016 72.2747 23.938 71.5341 24.2169C70.8269 24.4917 70.0187 24.6796 68.8366 24.7341C67.6505 24.7887 67.2727 24.8008 64.2539 24.8008C61.2351 24.8008 60.8573 24.7877 59.6722 24.7341C58.4902 24.6806 57.6819 24.4917 56.9747 24.2169C56.2331 23.938 55.5611 23.5008 55.0056 22.9358C54.4403 22.3808 54.0027 21.7092 53.7236 20.9677C53.4498 20.2605 53.2619 19.4523 53.2073 18.2702C53.1527 17.0831 53.1406 16.7053 53.1406 13.6875C53.1406 10.6687 53.1538 10.2909 53.2073 9.10682C53.2609 7.92275 53.4498 7.11451 53.7236 6.4073C54.0031 5.66582 54.441 4.9942 55.0066 4.43923C55.5613 3.87397 56.2326 3.43645 56.9737 3.15716C57.6809 2.88337 58.4892 2.69545 59.6712 2.6409H59.6722ZM68.7447 4.64129C67.5728 4.58775 67.2212 4.57663 64.2539 4.57663C61.2867 4.57663 60.9351 4.58775 59.7631 4.64129C58.6791 4.6908 58.0911 4.87164 57.6991 5.0242C57.1808 5.22626 56.81 5.4657 56.4211 5.85466C56.0524 6.21337 55.7686 6.65005 55.5906 7.13269C55.438 7.52469 55.2572 8.11268 55.2077 9.19673C55.1542 10.3687 55.143 10.7203 55.143 13.6875C55.143 16.6548 55.1542 17.0064 55.2077 18.1783C55.2572 19.2624 55.438 19.8503 55.5906 20.2423C55.7684 20.7243 56.0523 21.1617 56.4211 21.5204C56.7797 21.8891 57.2172 22.173 57.6991 22.3508C58.0911 22.5034 58.6791 22.6842 59.7631 22.7337C60.9351 22.7873 61.2857 22.7984 64.2539 22.7984C67.2222 22.7984 67.5728 22.7873 68.7447 22.7337C69.8288 22.6842 70.4168 22.5034 70.8087 22.3508C71.327 22.1488 71.6978 21.9093 72.0868 21.5204C72.4555 21.1617 72.7394 20.7243 72.9172 20.2423C73.0698 19.8503 73.2506 19.2624 73.3001 18.1783C73.3537 17.0064 73.3648 16.6548 73.3648 13.6875C73.3648 10.7203 73.3537 10.3687 73.3001 9.19673C73.2506 8.11268 73.0698 7.52469 72.9172 7.13269C72.7152 6.61441 72.4757 6.24363 72.0868 5.85466C71.728 5.48597 71.2914 5.20222 70.8087 5.0242C70.4168 4.87164 69.8288 4.6908 68.7447 4.64129ZM62.8345 17.1134C63.6272 17.4434 64.5099 17.488 65.3318 17.2394C66.1538 16.9909 66.8639 16.4647 67.341 15.7508C67.8181 15.0368 68.0325 14.1794 67.9476 13.3249C67.8628 12.4704 67.4839 11.6719 66.8757 11.0658C66.4879 10.6783 66.0191 10.3816 65.503 10.1971C64.9868 10.0125 64.4362 9.94472 63.8907 9.99852C63.3452 10.0523 62.8184 10.2264 62.3483 10.5082C61.8782 10.7901 61.4763 11.1726 61.1718 11.6284C60.8673 12.0841 60.6675 12.6017 60.5871 13.1439C60.5066 13.6861 60.5473 14.2394 60.7063 14.764C60.8653 15.2886 61.1386 15.7714 61.5066 16.1776C61.8746 16.5839 62.3281 16.9035 62.8345 17.1134ZM60.2147 9.64834C60.7452 9.11791 61.3749 8.69714 62.0679 8.41008C62.761 8.12301 63.5038 7.97526 64.2539 7.97526C65.0041 7.97526 65.7469 8.12301 66.4399 8.41008C67.133 8.69714 67.7627 9.11791 68.2931 9.64834C68.8235 10.1788 69.2443 10.8085 69.5314 11.5015C69.8184 12.1946 69.9662 12.9374 69.9662 13.6875C69.9662 14.4377 69.8184 15.1805 69.5314 15.8735C69.2443 16.5665 68.8235 17.1963 68.2931 17.7267C67.2218 18.798 65.7689 19.3998 64.2539 19.3998C62.7389 19.3998 61.286 18.798 60.2147 17.7267C59.1435 16.6554 58.5417 15.2025 58.5417 13.6875C58.5417 12.1725 59.1435 10.7196 60.2147 9.64834ZM71.2331 8.82595C71.3645 8.70196 71.4697 8.55285 71.5425 8.38746C71.6153 8.22206 71.6542 8.04375 71.6568 7.86307C71.6594 7.68239 71.6258 7.50301 71.5579 7.33557C71.4899 7.16813 71.3891 7.01601 71.2613 6.88824C71.1335 6.76046 70.9814 6.65963 70.814 6.59169C70.6465 6.52376 70.4672 6.49012 70.2865 6.49275C70.1058 6.49538 69.9275 6.53424 69.7621 6.60703C69.5967 6.67981 69.4476 6.78504 69.3236 6.91649C69.0825 7.17212 68.9504 7.51168 68.9556 7.86307C68.9607 8.21446 69.1025 8.55002 69.351 8.79852C69.5995 9.04701 69.9351 9.18888 70.2865 9.19401C70.6379 9.19913 70.9774 9.0671 71.2331 8.82595Z" fill="#FFFFF5"/>
<g id="Mask group">
<mask id="mask0_61_219" style="mask-type:luminance" maskUnits="userSpaceOnUse" x="0" y="1" width="24" height="24">
<path id="svgIDa" d="M0.171875 1.84668L23.3057 1.84668L23.3057 24.9805L0.171875 24.9805L0.171875 1.84668Z" fill="white"/>
</mask>
<g mask="url(#mask0_61_219)">
<g id="Group">
<path id="Vector_2" fill-rule="evenodd" clip-rule="evenodd" d="M0.171875 13.4782C0.171875 19.2288 4.34849 24.0108 9.81096 24.9805L9.81096 16.6263L6.91923 16.6263L6.91923 13.4136L9.81096 13.4136L9.81096 10.8428C9.81096 7.95111 11.6742 6.34524 14.3095 6.34524C15.1443 6.34524 16.0446 6.47344 16.8793 6.60164L16.8793 9.55795L15.4016 9.55795C13.9876 9.55795 13.6666 10.2645 13.6666 11.1648L13.6666 13.4136L16.7511 13.4136L16.2373 16.6263L13.6666 16.6263L13.6666 24.9805C19.1291 24.0108 23.3057 19.2298 23.3057 13.4782C23.3057 7.0807 18.1006 1.84668 11.7388 1.84668C5.37698 1.84668 0.171875 7.0807 0.171875 13.4782Z" fill="#FFFFF5"/>
</g>
</g>
</g>
<path id="Vector_3" d="M116.77 1.84668C110.382 1.84668 105.203 7.02528 105.203 13.4136C105.203 19.8019 110.382 24.9805 116.77 24.9805C123.158 24.9805 128.337 19.8019 128.337 13.4136C128.337 7.02528 123.158 1.84668 116.77 1.84668ZM113.939 18.2078H111.596V10.6701H113.939V18.2078ZM112.753 9.7447C112.013 9.7447 111.535 9.22058 111.535 8.57235C111.535 7.91087 112.028 7.40241 112.783 7.40241C113.539 7.40241 114.001 7.91087 114.016 8.57235C114.016 9.22058 113.539 9.7447 112.753 9.7447ZM122.493 18.2078H120.151V14.0305C120.151 13.0581 119.811 12.3979 118.964 12.3979C118.317 12.3979 117.933 12.8449 117.763 13.275C117.7 13.428 117.685 13.6449 117.685 13.8606V18.2066H115.341V13.0738C115.341 12.1328 115.311 11.346 115.28 10.6689H117.315L117.422 11.7159H117.469C117.777 11.2243 118.533 10.499 119.797 10.499C121.338 10.499 122.493 11.5316 122.493 13.7509V18.2078Z" fill="#FFFFF5"/>
<g id="Group_2">
<g id="Mask group_2">
<mask id="mask1_61_219" style="mask-type:luminance" maskUnits="userSpaceOnUse" x="158" y="0" width="28" height="28">
<path id="svgIDa_2" d="M158.176 0H185.344V27.1683H158.176V0Z" fill="white"/>
</mask>
<g mask="url(#mask1_61_219)">
<g id="Group_3">
<path id="Vector_4" d="M184.779 7.36701C184.625 6.81825 184.325 6.32142 183.912 5.92935C183.486 5.52523 182.965 5.23615 182.397 5.0894C180.271 4.52905 171.754 4.52905 171.754 4.52905C168.203 4.48865 164.653 4.66634 161.124 5.0611C160.556 5.21869 160.036 5.51423 159.61 5.92143C159.191 6.32443 158.887 6.82138 158.729 7.36588C158.348 9.4168 158.163 11.4993 158.176 13.5852C158.163 15.6692 158.347 17.751 158.729 19.8045C158.884 20.3467 159.186 20.8414 159.606 21.241C160.026 21.6406 160.549 21.9292 161.124 22.0821C163.278 22.6413 171.754 22.6413 171.754 22.6413C175.309 22.6817 178.864 22.5041 182.397 22.1092C182.965 21.9625 183.486 21.6734 183.912 21.2693C184.325 20.8773 184.624 20.3804 184.778 19.8316C185.168 17.7815 185.358 15.6982 185.345 13.6112C185.374 11.5154 185.185 9.42226 184.779 7.36588V7.36701ZM169.046 17.4612V9.71028L176.132 13.5863L169.046 17.4612Z" fill="#FFFFF5"/>
</g>
</g>
</g>
</g>
</g>
</svg>
